#!OML:ASF F:\VICON\USERDATA\INSTALL\rory3\rory3.ASF
:FULLY-SPECIFIED
:DEGREES
3807
root -1.94548 16.824 -6.16094 4.48918 8.75387 3.34197
lowerback 13.6001 -1.76949 -7.36151
upperback 1.6674 -3.41544 0.071528
thorax -5.41829 -1.51936 4.83542
lowerneck -21.879 -9.78732 -15.6227
upperneck 18.7612 -11.2084 11.2955
head 11.2623 -4.96591 4.77458
rclavicle 4.54223e-014 8.94531e-015
rhumerus -37.3123 8.59633 -83.5327
rradius 117.81
rwrist -7.99564
rhand -17.3447 28.0342
rfingers 7.12502
rthumb 8.90273 -1.75794
lclavicle 4.54223e-014 8.94531e-015
lhumerus -16.0014 -16.9741 87.0616
lradius 120.463
lwrist 3.74226
lhand -11.8743 7.51703
lfingers 7.12502
lthumb 14.1781 37.0132
rfemur -34.0408 -9.46893 6.97125
rtibia 56.024
rfoot -14.9146 -2.55967
rtoes 9.2761
lfemur -3.45639 -7.69368 -5.50681
ltibia 33.4465
lfoot -15.1845 0.106962
ltoes -42.455
3808
root -2.05516 16.8958 -6.10712 4.57656 8.52221 3.57061
lowerback 13.42 -1.75044 -7.75748
upperback 1.63397 -3.44376 -0.0781733
thorax -5.33669 -1.52924 4.89465
lowerneck -21.7245 -9.7333 -15.5676
upperneck 19.0026 -11.2023 11.3066
head 11.3206 -4.96419 4.77944
rclavicle -1.61513e-014 1.76918e-014
rhumerus -37.9486 8.79926 -83.3467
rradius 117.788
rwrist -7.868
rhand -16.9473 28.2783
rfingers 7.12502
rthumb 9.28623 -1.49723
lclavicle -1.61513e-014 1.76918e-014
lhumerus -16.3185 -16.6434 87.0636
lradius 120.505
lwrist 4.09282
lhand -11.7374 7.49341
lfingers 7.12502
lthumb 14.3101 36.9803
rfemur -33.6407 -9.51677 7.16036
rtibia 55.3503
rfoot -14.561 -2.04332
rtoes 10.2742
lfemur -3.35457 -8.60737 -5.63684
ltibia 33.2507
lfoot -13.4279 0.90245
ltoes -43.7818
3809
root -2.16264 16.9796 -6.05471 4.64452 8.20809 3.7854
lowerback 13.4627 -1.72509 -8.09395
upperback 1.50329 -3.48005 -0.232882
thorax -5.48523 -1.53042 4.93165
lowerneck -21.5616 -9.65457 -15.4765
upperneck 19.2084 -11.1468 11.2265
head 11.3474 -4.94817 4.75313
rclavicle 1.71949e-014 9.54166e-015
rhumerus -38.63 9.08354 -83.1323
rradius 117.64
rwrist -7.42834
rhand -16.6654 28.2605
rfingers 7.12502
rthumb 9.55815 -1.50267
lclavicle 1.71949e-014 9.54166e-015
lhumerus -16.8982 -16.1588 87.175
lradius 120.656
lwrist 4.33322
lhand -11.4402 7.60903
lfingers 7.12502
lthumb 14.5964 37.0754
rfemur -33.3119 -9.61349 7.34862
rtibia 54.685
rfoot -13.8501 -1.59634
rtoes 11.2702
lfemur -3.33915 -9.5156 -5.79941
ltibia 33.1442
lfoot -11.4778 1.45251
ltoes -43.9009
3810
root -2.26188 17.0736 -6.00648 4.68442 7.82241 3.84042
lowerback 13.3785 -1.71416 -8.17069
upperback 1.49084 -3.47651 -0.341624
thorax -5.4549 -1.52918 4.85419
lowerneck -21.4506 -9.61382 -15.5342
upperneck 19.322 -11.099 11.2284
head 11.3661 -4.93513 4.77721
rclavicle -1.51573e-014 -1.45113e-014
rhumerus -39.0238 9.3978 -82.7939
rradius 117.328
rwrist -6.8703
rhand -16.6842 27.9795
rfingers 7.12502
rthumb 9.54002 -1.78449
lclavicle -1.51573e-014 -1.45113e-014
lhumerus -17.3246 -15.5995 87.3196
lradius 120.714
lwrist 4.2484
lhand -11.422 7.74966
lfingers 7.12502
lthumb 14.614 37.2148
rfemur -33.0672 -9.79196 7.65023
rtibia 54.0348
rfoot -12.6356 -1.03163
rtoes 13.1458
lfemur -3.4032 -10.2063 -5.82931
ltibia 33.141
lfoot -9.32269 2.06809
ltoes -42.6082
3811
root -2.35186 17.1698 -5.95791 4.776 7.22882 3.8273
lowerback 13.164 -1.67043 -8.12738
upperback 1.46983 -3.40031 -0.447649
thorax -5.3784 -1.49716 4.69415
lowerneck -21.4651 -9.53719 -15.53
upperneck 19.5363 -11.0123 11.2378
head 11.4364 -4.89501 4.80109
rclavicle 3.19049e-014 6.36111e-015
rhumerus -39.3017 9.75506 -82.4873
rradius 116.989
rwrist -6.70736
rhand -17.0188 27.8466
rfingers 7.12502
rthumb 9.21722 -1.9319
lclavicle 3.19049e-014 6.36111e-015
lhumerus -17.8424 -14.9468 87.504
lradius 120.751
lwrist 4.01173
lhand -11.6431 7.51527
lfingers 7.12502
lthumb 14.4009 36.9957
rfemur -32.9827 -9.98248 7.95643
rtibia 53.3991
rfoot -10.9672 -0.318693
rtoes 14.7791
lfemur -3.48521 -10.571 -5.88548
ltibia 33.226
lfoot -7.23825 2.94081
ltoes -40.9649
3812
root -2.43781 17.2658 -5.91093 4.94651 6.55248 3.73743
lowerback 12.8948 -1.60318 -8.00233
upperback 1.40921 -3.27704 -0.524591
thorax -5.32238 -1.44157 4.51089
lowerneck -21.3826 -9.40808 -15.4397
upperneck 19.6307 -10.8867 11.2548
head 11.4328 -4.83331 4.82176
rclavicle -1.8487e-014 -3.97569e-016
rhumerus -39.5355 10.0895 -82.1354
rradius 116.777
rwrist -7.0093
rhand -17.3821 27.6612
rfingers 7.12502
rthumb 8.86662 -2.13248
lclavicle -1.8487e-014 -3.97569e-016
lhumerus -18.4577 -14.2868 87.727
lradius 120.873
lwrist 4.02884
lhand -11.8252 7.34544
lfingers 7.12502
lthumb 14.2255 36.8383
rfemur -33.0133 -10.1853 8.28007
rtibia 52.777
rfoot -9.03591 0.422039
rtoes 16.9356
lfemur -3.71165 -10.717 -5.92137
ltibia 33.4394
lfoot -5.41161 3.88458
ltoes -39.4006
3813
root -2.51897 17.3636 -5.87025 5.06935 5.93341 3.44678
lowerback 12.7982 -1.56062 -7.6268
upperback 1.34343 -3.16235 -0.503912
thorax -5.37322 -1.38968 4.30147
lowerneck -21.3248 -9.31336 -15.444
upperneck 19.66 -10.7616 11.2501
head 11.4139 -4.78023 4.84698
rclavicle 1.02374e-014 -1.63003e-014
rhumerus -39.679 10.4347 -81.6137
rradius 116.704
rwrist -7.61233
rhand -17.5828 27.4923
rfingers 7.12502
rthumb 8.67294 -2.30955
lclavicle 1.02374e-014 -1.63003e-014
lhumerus -18.9585 -13.6197 87.9692
lradius 121.008
lwrist 4.16818
lhand -11.8316 7.61243
lfingers 7.12502
lthumb 14.2192 37.1057
rfemur -33.0036 -10.4251 8.73517
rtibia 52.1638
rfoot -6.78052 1.18317
rtoes 19.2541
lfemur -4.05847 -10.6335 -5.77238
ltibia 33.7844
lfoot -3.78312 4.57428
ltoes -37.9516
3814
root -2.5921 17.4596 -5.8325 5.20147 5.2856 2.97318
lowerback 12.732 -1.53569 -6.96536
upperback 1.27198 -3.03235 -0.448567
thorax -5.46002 -1.33511 3.96737
lowerneck -21.3837 -9.24435 -15.416
upperneck 19.7164 -10.6619 11.2245
head 11.4272 -4.73441 4.85206
rclavicle 3.77691e-015 -6.36111e-015
rhumerus -39.736 10.7099 -81.1073
rradius 116.616
rwrist -8.35159
rhand -17.8055 27.5411
rfingers 7.12502
rthumb 8.45804 -2.26954
lclavicle 3.77691e-015 -6.36111e-015
lhumerus -19.3743 -12.9364 88.16
lradius 121.06
lwrist 4.31803
lhand -11.8056 7.72656
lfingers 7.12502
lthumb 14.2443 37.2181
rfemur -33.0229 -10.6724 9.28091
rtibia 51.5268
rfoot -3.99903 1.97782
rtoes 21.4203
lfemur -4.43648 -10.4091 -5.50435
ltibia 34.2429
lfoot -2.75872 4.9607
ltoes -36.9129
3815
root -2.65841 17.5468 -5.7989 5.32858 4.69566 2.55769
lowerback 12.6827 -1.52915 -6.32689
upperback 1.24311 -2.92743 -0.36113
thorax -5.50239 -1.29534 3.68318
lowerneck -21.5382 -9.15971 -15.2954
upperneck 19.7385 -10.5352 11.1349
head 11.4312 -4.67327 4.82016
rclavicle 2.98177e-014 1.27222e-014
rhumerus -39.6054 10.9412 -80.4928
rradius 116.55
rwrist -9.07639
rhand -18.1273 27.5052
rfingers 7.12502
rthumb 8.14751 -2.31774
lclavicle 2.98177e-014 1.27222e-014
lhumerus -19.7899 -12.1779 88.4436
lradius 121.141
lwrist 4.5261
lhand -11.6896 7.56324
lfingers 7.12502
lthumb 14.3561 37.0468
rfemur -32.9897 -10.9846 9.6098
rtibia 50.8606
rfoot -0.786237 2.76671
rtoes 23.0143
lfemur -4.83663 -10.0831 -5.36393
ltibia 34.7694
lfoot -2.58702 4.68556
ltoes -37.0653
3816
root -2.72175 17.6265 -5.76993 5.34819 4.12602 2.25363
lowerback 12.7651 -1.53959 -5.8529
upperback 1.27133 -2.87166 -0.223106
thorax -5.53993 -1.27684 3.55667
lowerneck -21.7096 -9.05261 -15.2387
upperneck 19.7187 -10.3463 11.0371
head 11.4169 -4.58922 4.80625
rclavicle -3.85145e-014 -1.70955e-014
rhumerus -39.3021 11.2576 -79.7682
rradius 116.539
rwrist -9.70312
rhand -18.3806 27.4288
rfingers 7.12502
rthumb 7.90303 -2.40346
lclavicle -3.85145e-014 -1.70955e-014
lhumerus -20.2417 -11.3564 88.7902
lradius 121.323
lwrist 4.82357
lhand -11.7067 7.60718
lfingers 7.12502
lthumb 14.3396 37.092
rfemur -32.8058 -11.2073 9.6826
rtibia 50.1489
rfoot 2.5261 3.5207
rtoes 23.1777
lfemur -5.20259 -9.54289 -5.40155
ltibia 35.3499
lfoot -2.89951 3.51321
ltoes -35.9376
3817
root -2.78458 17.7024 -5.74139 5.257 3.56062 2.08825
lowerback 12.9574 -1.56192 -5.52444
upperback 1.34937 -2.8578 -0.111914
thorax -5.57529 -1.27673 3.49367
lowerneck -21.8444 -8.93658 -15.2572
upperneck 19.6948 -10.1585 11.0634
head 11.4074 -4.49843 4.85248
rclavicle -3.74212e-014 -1.07344e-014
rhumerus -38.9005 11.5743 -79.0361
rradius 116.577
rwrist -10.1497
rhand -18.5073 27.3184
rfingers 7.12502
rthumb 7.78073 -2.51846
lclavicle -3.74212e-014 -1.07344e-014
lhumerus -20.8059 -10.6493 89.2079
lradius 121.622
lwrist 4.90631
lhand -12.025 7.69066
lfingers 7.12502
lthumb 14.0329 37.1969
rfemur -32.4726 -11.1897 9.44506
rtibia 49.3966
rfoot 5.64015 4.31726
rtoes 21.8132
lfemur -5.50778 -8.87093 -5.64735
ltibia 35.9425
lfoot -3.6123 2.03502
ltoes -34.5824
3818
root -2.85032 17.7682 -5.71257 5.21935 2.99721 2.01482
lowerback 13.1297 -1.54435 -5.3137
upperback 1.38988 -2.8091 -0.0346366
thorax -5.63878 -1.25552 3.45526
lowerneck -21.8215 -8.83673 -15.1142
upperneck 19.5981 -10.0428 10.9964
head 11.3366 -4.44359 4.82444
rclavicle 3.69739e-014 9.14409e-015
rhumerus -38.5515 11.6883 -78.2677
rradius 116.617
rwrist -10.3395
rhand -18.676 27.3445
rfingers 7.12502
rthumb 7.61787 -2.49832
lclavicle 3.69739e-014 9.14409e-015
lhumerus -21.3788 -10.1632 89.6454
lradius 121.926
lwrist 4.91434
lhand -12.2732 7.69089
lfingers 7.12502
lthumb 13.7937 37.2136
rfemur -32.17 -10.9216 8.99888
rtibia 48.6186
rfoot 8.28045 5.25059
rtoes 18.1402
lfemur -5.8977 -8.14138 -6.00842
ltibia 36.5169
lfoot -3.79491 0.330922
ltoes -32.5346
3819
root -2.92211 17.8197 -5.68282 5.35175 2.27434 1.91155
lowerback 13.1021 -1.47076 -5.27686
upperback 1.37004 -2.69654 0.119212
thorax -5.6493 -1.19924 3.57766
lowerneck -21.7362 -8.73313 -14.9714
upperneck 19.4893 -9.92266 10.8992
head 11.2476 -4.39223 4.78656
rclavicle 1.92324e-014 -5.96354e-016
rhumerus -38.1381 11.7954 -77.4224
rradius 116.65
rwrist -10.4603
rhand -18.8274 27.5116
rfingers 7.12502
rthumb 7.47179 -2.33646
lclavicle 1.92324e-014 -5.96354e-016
lhumerus -21.721 -9.70786 89.9637
lradius 122.008
lwrist 5.13229
lhand -12.5718 7.61767
lfingers 7.12502
lthumb 13.5059 37.1597
rfemur -32.0657 -10.286 8.55747
rtibia 47.8496
rfoot 10.382 6.2031
rtoes 13.0706
lfemur -6.41007 -7.12797 -6.30943
ltibia 37.0276
lfoot -4.30666 -1.13894
ltoes -32.2195
